<svg id="Capa_1" enable-background="new 0 0 512 512" height="512" viewBox="0 0 512 512" width="512" xmlns="http://www.w3.org/2000/svg"><g><path d="m467 0h-101c-11.517 0-22.032 4.354-30 11.495-7.968-7.141-18.483-11.495-30-11.495h-100c-11.517 0-22.032 4.354-30 11.495-7.968-7.141-18.483-11.495-30-11.495h-101c-24.813 0-45 20.187-45 45v101c0 11.517 4.354 22.032 11.495 30-7.141 7.968-11.495 18.483-11.495 30v100c0 11.517 4.354 22.032 11.495 30-7.141 7.968-11.495 18.483-11.495 30v101c0 24.813 20.187 45 45 45h101c11.517 0 22.032-4.354 30-11.495 7.968 7.141 18.483 11.495 30 11.495h100c11.517 0 22.032-4.354 30-11.495 7.968 7.141 18.483 11.495 30 11.495h101c24.813 0 45-20.187 45-45v-101c0-11.517-4.354-22.032-11.495-30 7.142-7.968 11.495-18.483 11.495-30v-100c0-11.517-4.354-22.032-11.495-30 7.142-7.968 11.495-18.483 11.495-30v-101c0-24.813-20.187-45-45-45zm-101 30h101c8.271 0 15 6.729 15 15v101c0 8.271-6.729 15-15 15h-101c-8.271 0-15-6.729-15-15v-101c0-8.271 6.729-15 15-15zm116 176v100c0 8.271-6.729 15-15 15h-101c-8.271 0-15-6.729-15-15v-100c0-8.271 6.729-15 15-15h101c8.271 0 15 6.729 15 15zm-452 100v-100c0-8.271 6.729-15 15-15h101c8.271 0 15 6.729 15 15v100c0 8.271-6.729 15-15 15h-101c-8.271 0-15-6.729-15-15zm161 0v-100c0-8.271 6.729-15 15-15h100c8.271 0 15 6.729 15 15v100c0 8.271-6.729 15-15 15h-100c-8.271 0-15-6.729-15-15zm15-276h100c8.271 0 15 6.729 15 15v101c0 8.271-6.729 15-15 15h-100c-8.271 0-15-6.729-15-15v-101c0-8.271 6.729-15 15-15zm-176 15c0-8.271 6.729-15 15-15h101c8.271 0 15 6.729 15 15v101c0 8.271-6.729 15-15 15h-101c-8.271 0-15-6.729-15-15zm116 437h-101c-8.271 0-15-6.729-15-15v-101c0-8.271 6.729-15 15-15h101c8.271 0 15 6.729 15 15v101c0 8.271-6.729 15-15 15zm160 0h-100c-8.271 0-15-6.729-15-15v-101c0-8.271 6.729-15 15-15h100c8.271 0 15 6.729 15 15v101c0 8.271-6.729 15-15 15zm176-15c0 8.271-6.729 15-15 15h-101c-8.271 0-15-6.729-15-15v-101c0-8.271 6.729-15 15-15h101c8.271 0 15 6.729 15 15z"/></g></svg>